<mxfile host="app.diagrams.net" modified="2023-06-27T06:45:40.555Z" agent="Mozilla/5.0 (Windows NT 10.0; Win64; x64) AppleWebKit/537.36 (KHTML, like Gecko) Chrome/114.0.0.0 Safari/537.36" etag="C_wh-mU7hP3ZZarGriVG" version="21.5.0" type="github">
  <diagram name="Page-1" id="GQbP6cccIJMyzw-mxkib">
    <mxGraphModel dx="221" dy="139" grid="1" gridSize="10" guides="1" tooltips="1" connect="1" arrows="1" fold="1" page="1" pageScale="1" pageWidth="850" pageHeight="1100" math="0" shadow="0">
      <root>
        <mxCell id="0" />
        <mxCell id="1" parent="0" />
        <mxCell id="4rOQTjdM369AcTlNEwz9-7" value="" style="group" vertex="1" connectable="0" parent="1">
          <mxGeometry x="278" y="118" width="92" height="52" as="geometry" />
        </mxCell>
        <mxCell id="4rOQTjdM369AcTlNEwz9-8" value="W&lt;span style=&quot;font-size: 10px;&quot;&gt;&lt;sub&gt;q&lt;/sub&gt;&lt;sup&gt;T&lt;/sup&gt;&lt;/span&gt;" style="whiteSpace=wrap;html=1;" vertex="1" parent="4rOQTjdM369AcTlNEwz9-7">
          <mxGeometry x="12" y="12" width="80" height="40" as="geometry" />
        </mxCell>
        <mxCell id="4rOQTjdM369AcTlNEwz9-9" value="d&lt;sub&gt;q&lt;/sub&gt;" style="endArrow=classic;startArrow=classic;html=1;rounded=0;strokeColor=#0000CC;" edge="1" parent="4rOQTjdM369AcTlNEwz9-7">
          <mxGeometry width="50" height="50" relative="1" as="geometry">
            <mxPoint x="12" as="sourcePoint" />
            <mxPoint x="92" as="targetPoint" />
          </mxGeometry>
        </mxCell>
        <mxCell id="4rOQTjdM369AcTlNEwz9-10" value="d" style="endArrow=classic;startArrow=classic;html=1;rounded=0;strokeColor=#ff0000;" edge="1" parent="4rOQTjdM369AcTlNEwz9-7">
          <mxGeometry width="50" height="50" relative="1" as="geometry">
            <mxPoint y="52" as="sourcePoint" />
            <mxPoint y="12" as="targetPoint" />
          </mxGeometry>
        </mxCell>
        <mxCell id="4rOQTjdM369AcTlNEwz9-11" value="" style="group" vertex="1" connectable="0" parent="1">
          <mxGeometry x="280" y="310" width="92" height="52" as="geometry" />
        </mxCell>
        <mxCell id="4rOQTjdM369AcTlNEwz9-12" value="W&lt;span style=&quot;font-size: 10px;&quot;&gt;&lt;sub&gt;v&lt;/sub&gt;&lt;sup&gt;T&lt;/sup&gt;&lt;/span&gt;" style="whiteSpace=wrap;html=1;" vertex="1" parent="4rOQTjdM369AcTlNEwz9-11">
          <mxGeometry x="12" y="12" width="80" height="40" as="geometry" />
        </mxCell>
        <mxCell id="4rOQTjdM369AcTlNEwz9-13" value="d&lt;sub&gt;v&lt;/sub&gt;" style="endArrow=classic;startArrow=classic;html=1;rounded=0;strokeColor=#0000CC;" edge="1" parent="4rOQTjdM369AcTlNEwz9-11">
          <mxGeometry width="50" height="50" relative="1" as="geometry">
            <mxPoint x="12" as="sourcePoint" />
            <mxPoint x="92" as="targetPoint" />
          </mxGeometry>
        </mxCell>
        <mxCell id="4rOQTjdM369AcTlNEwz9-14" value="d" style="endArrow=classic;startArrow=classic;html=1;rounded=0;strokeColor=#ff0000;" edge="1" parent="4rOQTjdM369AcTlNEwz9-11">
          <mxGeometry width="50" height="50" relative="1" as="geometry">
            <mxPoint y="52" as="sourcePoint" />
            <mxPoint y="12" as="targetPoint" />
          </mxGeometry>
        </mxCell>
        <mxCell id="4rOQTjdM369AcTlNEwz9-18" value="" style="group" vertex="1" connectable="0" parent="1">
          <mxGeometry x="280" y="208" width="92" height="52" as="geometry" />
        </mxCell>
        <mxCell id="4rOQTjdM369AcTlNEwz9-1" value="W&lt;sub&gt;k&lt;/sub&gt;&lt;span style=&quot;font-size: 10px;&quot;&gt;&lt;sup&gt;T&lt;/sup&gt;&lt;/span&gt;" style="whiteSpace=wrap;html=1;" vertex="1" parent="4rOQTjdM369AcTlNEwz9-18">
          <mxGeometry x="12" y="12" width="80" height="40" as="geometry" />
        </mxCell>
        <mxCell id="4rOQTjdM369AcTlNEwz9-2" value="d&lt;sub&gt;k=&lt;/sub&gt;d&lt;font size=&quot;1&quot;&gt;&lt;sub&gt;v&lt;/sub&gt;&lt;/font&gt;" style="endArrow=classic;startArrow=classic;html=1;rounded=0;strokeColor=#0000CC;align=right;" edge="1" parent="4rOQTjdM369AcTlNEwz9-18">
          <mxGeometry width="50" height="50" relative="1" as="geometry">
            <mxPoint x="12" as="sourcePoint" />
            <mxPoint x="92" as="targetPoint" />
            <Array as="points">
              <mxPoint x="80" />
              <mxPoint x="40" />
              <mxPoint x="70" />
            </Array>
          </mxGeometry>
        </mxCell>
        <mxCell id="4rOQTjdM369AcTlNEwz9-5" value="d" style="endArrow=classic;startArrow=classic;html=1;rounded=0;strokeColor=#ff0000;" edge="1" parent="4rOQTjdM369AcTlNEwz9-18">
          <mxGeometry width="50" height="50" relative="1" as="geometry">
            <mxPoint y="52" as="sourcePoint" />
            <mxPoint y="12" as="targetPoint" />
          </mxGeometry>
        </mxCell>
        <mxCell id="4rOQTjdM369AcTlNEwz9-23" style="edgeStyle=orthogonalEdgeStyle;rounded=0;orthogonalLoop=1;jettySize=auto;html=1;exitX=1;exitY=0.25;exitDx=0;exitDy=0;entryX=0;entryY=0.5;entryDx=0;entryDy=0;strokeWidth=0.5;strokeColor=#7c7979;" edge="1" parent="1" source="4rOQTjdM369AcTlNEwz9-19" target="4rOQTjdM369AcTlNEwz9-8">
          <mxGeometry relative="1" as="geometry" />
        </mxCell>
        <mxCell id="4rOQTjdM369AcTlNEwz9-24" style="edgeStyle=orthogonalEdgeStyle;rounded=0;orthogonalLoop=1;jettySize=auto;html=1;exitX=1;exitY=0.5;exitDx=0;exitDy=0;entryX=0;entryY=0.5;entryDx=0;entryDy=0;strokeWidth=0.5;strokeColor=#7c7979;" edge="1" parent="1" source="4rOQTjdM369AcTlNEwz9-19" target="4rOQTjdM369AcTlNEwz9-1">
          <mxGeometry relative="1" as="geometry" />
        </mxCell>
        <mxCell id="4rOQTjdM369AcTlNEwz9-25" style="edgeStyle=orthogonalEdgeStyle;rounded=0;orthogonalLoop=1;jettySize=auto;html=1;exitX=1;exitY=0.75;exitDx=0;exitDy=0;entryX=0.013;entryY=0.648;entryDx=0;entryDy=0;strokeWidth=0.5;strokeColor=#7c7979;entryPerimeter=0;" edge="1" parent="1" source="4rOQTjdM369AcTlNEwz9-19" target="4rOQTjdM369AcTlNEwz9-12">
          <mxGeometry relative="1" as="geometry">
            <mxPoint x="210" y="230" as="sourcePoint" />
            <mxPoint x="300" y="160" as="targetPoint" />
          </mxGeometry>
        </mxCell>
        <mxCell id="4rOQTjdM369AcTlNEwz9-27" value="" style="group" vertex="1" connectable="0" parent="1">
          <mxGeometry x="150" y="190" width="50" height="90" as="geometry" />
        </mxCell>
        <mxCell id="4rOQTjdM369AcTlNEwz9-19" value="&lt;i&gt;&lt;b&gt;x&lt;/b&gt;&lt;/i&gt;" style="rounded=0;whiteSpace=wrap;html=1;" vertex="1" parent="4rOQTjdM369AcTlNEwz9-27">
          <mxGeometry x="10" y="10" width="40" height="80" as="geometry" />
        </mxCell>
        <mxCell id="4rOQTjdM369AcTlNEwz9-20" value="d" style="endArrow=classic;startArrow=classic;html=1;rounded=0;strokeColor=#ff0000;" edge="1" parent="4rOQTjdM369AcTlNEwz9-27">
          <mxGeometry width="50" height="50" relative="1" as="geometry">
            <mxPoint x="10" as="sourcePoint" />
            <mxPoint x="50" as="targetPoint" />
          </mxGeometry>
        </mxCell>
        <mxCell id="4rOQTjdM369AcTlNEwz9-21" value="n" style="endArrow=classic;startArrow=classic;html=1;rounded=0;strokeColor=#00ff00;" edge="1" parent="4rOQTjdM369AcTlNEwz9-27">
          <mxGeometry width="50" height="50" relative="1" as="geometry">
            <mxPoint y="90" as="sourcePoint" />
            <mxPoint y="8" as="targetPoint" />
          </mxGeometry>
        </mxCell>
        <mxCell id="4rOQTjdM369AcTlNEwz9-28" value="" style="group" vertex="1" connectable="0" parent="1">
          <mxGeometry x="409" y="100" width="60" height="90" as="geometry" />
        </mxCell>
        <mxCell id="4rOQTjdM369AcTlNEwz9-29" value="Q" style="rounded=0;whiteSpace=wrap;html=1;" vertex="1" parent="4rOQTjdM369AcTlNEwz9-28">
          <mxGeometry x="12" y="10" width="48" height="80" as="geometry" />
        </mxCell>
        <mxCell id="4rOQTjdM369AcTlNEwz9-30" value="&lt;font size=&quot;1&quot;&gt;d&lt;sub&gt;q&lt;/sub&gt;&lt;/font&gt;" style="endArrow=classic;startArrow=classic;html=1;rounded=0;strokeColor=#0000ff;" edge="1" parent="4rOQTjdM369AcTlNEwz9-28">
          <mxGeometry width="50" height="50" relative="1" as="geometry">
            <mxPoint x="12" as="sourcePoint" />
            <mxPoint x="60" as="targetPoint" />
          </mxGeometry>
        </mxCell>
        <mxCell id="4rOQTjdM369AcTlNEwz9-31" value="n" style="endArrow=classic;startArrow=classic;html=1;rounded=0;strokeColor=#00ff00;" edge="1" parent="4rOQTjdM369AcTlNEwz9-28">
          <mxGeometry width="50" height="50" relative="1" as="geometry">
            <mxPoint y="90" as="sourcePoint" />
            <mxPoint y="8" as="targetPoint" />
          </mxGeometry>
        </mxCell>
        <mxCell id="4rOQTjdM369AcTlNEwz9-32" style="edgeStyle=orthogonalEdgeStyle;rounded=0;orthogonalLoop=1;jettySize=auto;html=1;exitX=1;exitY=0.5;exitDx=0;exitDy=0;entryX=0;entryY=0.5;entryDx=0;entryDy=0;strokeColor=#7c7979;strokeWidth=0.5;" edge="1" parent="1" source="4rOQTjdM369AcTlNEwz9-8" target="4rOQTjdM369AcTlNEwz9-29">
          <mxGeometry relative="1" as="geometry" />
        </mxCell>
        <mxCell id="4rOQTjdM369AcTlNEwz9-33" value="" style="group" vertex="1" connectable="0" parent="1">
          <mxGeometry x="410" y="200" width="60" height="90" as="geometry" />
        </mxCell>
        <mxCell id="4rOQTjdM369AcTlNEwz9-34" value="W" style="rounded=0;whiteSpace=wrap;html=1;" vertex="1" parent="4rOQTjdM369AcTlNEwz9-33">
          <mxGeometry x="12" y="10" width="48" height="80" as="geometry" />
        </mxCell>
        <mxCell id="4rOQTjdM369AcTlNEwz9-35" value="&lt;font size=&quot;1&quot;&gt;d&lt;sub&gt;q&lt;/sub&gt;&lt;/font&gt;" style="endArrow=classic;startArrow=classic;html=1;rounded=0;strokeColor=#0000ff;" edge="1" parent="4rOQTjdM369AcTlNEwz9-33">
          <mxGeometry width="50" height="50" relative="1" as="geometry">
            <mxPoint x="12" as="sourcePoint" />
            <mxPoint x="60" as="targetPoint" />
          </mxGeometry>
        </mxCell>
        <mxCell id="4rOQTjdM369AcTlNEwz9-36" value="n" style="endArrow=classic;startArrow=classic;html=1;rounded=0;strokeColor=#00ff00;" edge="1" parent="4rOQTjdM369AcTlNEwz9-33">
          <mxGeometry width="50" height="50" relative="1" as="geometry">
            <mxPoint y="90" as="sourcePoint" />
            <mxPoint y="8" as="targetPoint" />
          </mxGeometry>
        </mxCell>
        <mxCell id="4rOQTjdM369AcTlNEwz9-37" style="edgeStyle=orthogonalEdgeStyle;rounded=0;orthogonalLoop=1;jettySize=auto;html=1;strokeColor=#7c7979;strokeWidth=0.5;entryX=0.011;entryY=0.378;entryDx=0;entryDy=0;entryPerimeter=0;exitX=1;exitY=0.5;exitDx=0;exitDy=0;" edge="1" parent="1" source="4rOQTjdM369AcTlNEwz9-1" target="4rOQTjdM369AcTlNEwz9-34">
          <mxGeometry relative="1" as="geometry">
            <mxPoint x="370" y="240" as="sourcePoint" />
            <mxPoint x="420" y="240" as="targetPoint" />
          </mxGeometry>
        </mxCell>
      </root>
    </mxGraphModel>
  </diagram>
</mxfile>
